<svg width="100" height="96" viewBox="0 0 100 96" fill="none" xmlns="http://www.w3.org/2000/svg">
<path d="M91.8222 11.7825C86.6497 6.44532 79.4019 3.40851 71.8083 3.39726C64.2086 3.4057 56.9532 6.44089 51.7729 11.7791L50.0073 13.5701L48.2418 11.7791C37.9625 1.15835 20.6607 0.54842 9.59764 10.4165C9.10741 10.854 8.63394 11.3083 8.17827 11.7791C-2.72609 23.0703 -2.72609 40.5204 8.17827 51.8116L47.4128 91.5318C48.7701 92.9075 51.0322 92.9664 52.4652 91.6633C52.5121 91.6207 52.5577 91.5769 52.6021 91.5318L91.8224 51.8116C102.726 40.5216 102.726 23.0725 91.8222 11.7825Z" fill="#E83587"/>
</svg>
