<svg width="100" height="102" viewBox="0 0 100 102" fill="none" xmlns="http://www.w3.org/2000/svg">
<g clip-path="url(#clip0)">
<path d="M95.8914 21.2776H17.7036L16.5413 8.07096C16.3513 5.91125 14.5767 4.25641 12.4509 4.25641H4.10683C1.83869 4.25641 0 6.13187 0 8.44538C0 10.7589 1.83869 12.6343 4.10683 12.6343H8.69632C11.2044 41.1357 4.72227 -32.5297 13.4198 66.3108C13.755 70.1794 15.8043 74.3773 19.3346 77.2298C12.9696 85.5208 18.7852 97.7436 29.139 97.7436C37.7324 97.7436 43.7935 89.0014 40.8466 80.7216H63.3238C60.3806 88.9909 66.4286 97.7436 75.0314 97.7436C81.8969 97.7436 87.4824 92.0464 87.4824 85.0437C87.4824 78.0409 81.8969 72.3437 75.0314 72.3437H29.1667C26.0471 72.3437 23.3286 70.424 22.1552 67.6269L87.7878 63.6925C89.5796 63.5852 91.0956 62.3029 91.5311 60.5268L99.8758 26.4825C100.523 23.8426 98.5636 21.2776 95.8914 21.2776V21.2776ZM29.139 89.3657C26.8028 89.3657 24.9019 87.4268 24.9019 85.0437C24.9019 82.6605 26.8028 80.7216 29.139 80.7216C31.4754 80.7216 33.3762 82.6605 33.3762 85.0437C33.3762 87.4268 31.4754 89.3657 29.139 89.3657ZM75.0312 89.3657C72.6948 89.3657 70.794 87.4268 70.794 85.0437C70.794 82.6605 72.6948 80.7216 75.0312 80.7216C77.3676 80.7216 79.2685 82.6605 79.2685 85.0437C79.2685 87.4268 77.3676 89.3657 75.0312 89.3657ZM84.2943 55.5096L21.0497 59.3007L18.4409 29.6553H90.6315L84.2943 55.5096Z" fill="black"/>
</g>
<defs>
<clipPath id="clip0">
<rect width="100" height="102" fill="white"/>
</clipPath>
</defs>
</svg>
