<svg width="16" height="16" viewBox="0 0 16 16" fill="none" xmlns="http://www.w3.org/2000/svg">
<path fill-rule="evenodd" clip-rule="evenodd" d="M3 4H13C13.5523 4 14 3.55228 14 3C14 2.44772 13.5523 2 13 2H3C2.44772 2 2 2.44772 2 3C2 3.55228 2.44772 4 3 4Z" fill="#262626"/>
<path fill-rule="evenodd" clip-rule="evenodd" d="M13 7H3C2.44772 7 2 7.44772 2 8C2 8.55228 2.44772 9 3 9H13C13.5523 9 14 8.55228 14 8C14 7.44772 13.5523 7 13 7Z" fill="#262626"/>
<path fill-rule="evenodd" clip-rule="evenodd" d="M13 12H3C2.44772 12 2 12.4477 2 13C2 13.5523 2.44772 14 3 14H13C13.5523 14 14 13.5523 14 13C14 12.4477 13.5523 12 13 12Z" fill="#262626"/>
</svg>
