<svg width="16" height="16" viewBox="0 0 16 16" fill="none" xmlns="http://www.w3.org/2000/svg">
<path d="M14.1754 14.1754C14.5901 13.7608 14.5901 13.0884 14.1754 12.6738L3.49686 1.99521C3.08219 1.58054 2.40988 1.58054 1.99521 1.99521C1.58054 2.40988 1.58054 3.08219 1.99521 3.49686L12.6738 14.1754C13.0884 14.5901 13.7608 14.5901 14.1754 14.1754Z" fill="#E83587"/>
<path d="M1.99521 14.1754C1.58054 13.7608 1.58054 13.0884 1.99521 12.6738L12.6738 1.99521C13.0884 1.58054 13.7608 1.58054 14.1754 1.99521C14.5901 2.40988 14.5901 3.08219 14.1754 3.49686L3.49686 14.1754C3.08219 14.5901 2.40988 14.5901 1.99521 14.1754Z" fill="#E83587"/>
</svg>
