<svg width="100" height="96" viewBox="0 0 100 96" fill="none" xmlns="http://www.w3.org/2000/svg">
<path d="M91.8222 11.7825C86.6497 6.44532 79.4019 3.40851 71.8083 3.39726C64.2086 3.4057 56.9532 6.44089 51.7729 11.7791L50.0073 13.5701L48.2418 11.7791C37.9625 1.15835 20.6607 0.548421 9.59764 10.4165C9.10741 10.854 8.63394 11.3083 8.17827 11.7791C-2.72609 23.0703 -2.72609 40.5204 8.17827 51.8116L47.4128 91.5318C48.7701 92.9075 51.0322 92.9664 52.4652 91.6633C52.5121 91.6207 52.5577 91.5769 52.6021 91.5318L91.8224 51.8116C102.726 40.5216 102.726 23.0725 91.8222 11.7825ZM86.6508 47.0871H86.6472L50.0073 84.1861L13.3641 47.0871C5.03378 38.4596 5.03378 25.1277 13.3641 16.5002C20.929 8.62894 33.7086 8.1354 41.9078 15.3977C42.3059 15.7503 42.6889 16.118 43.0562 16.5002L47.4128 20.9124C48.8485 22.2819 51.1664 22.2819 52.6021 20.9124L56.9587 16.5036C64.5236 8.63235 77.3032 8.13882 85.5024 15.4011C85.9005 15.7537 86.2835 16.1214 86.6508 16.5036C95.0535 25.1448 95.1151 38.501 86.6508 47.0871Z" fill="#E83587"/>
</svg>
