<svg width="100" height="100" viewBox="0 0 100 100" fill="none" xmlns="http://www.w3.org/2000/svg">
<path d="M17.5922 0V100H82.4078V0H17.5922ZM76.5484 13.5512H67.6687V5.85938H76.5484V13.5512ZM72.1088 31.4613C73.6976 31.4613 75.2033 31.0992 76.5484 30.4539V82.4125H23.4515V30.4539C24.7967 31.0992 26.3025 31.4615 27.8914 31.4615C30.7779 31.4615 33.389 30.2664 35.2609 28.3469C37.1326 30.2664 39.7439 31.4615 42.6304 31.4615C45.517 31.4615 48.1281 30.2664 50 28.3469C51.8719 30.2664 54.483 31.4615 57.3695 31.4615C60.2558 31.4615 62.8672 30.2664 64.7388 28.3469C66.6109 30.2662 69.2222 31.4613 72.1088 31.4613V31.4613ZM38.1906 19.4105H47.0703V21.1621C47.0703 23.6104 45.0785 25.602 42.6304 25.602C40.1824 25.602 38.1906 23.6104 38.1906 21.1621V19.4105ZM38.1906 13.5512V5.85938H47.0703V13.5512H38.1906ZM57.3697 25.602C54.9215 25.602 52.9299 23.6104 52.9299 21.1621V19.4105H61.8095V21.1621C61.8094 23.6104 59.8178 25.602 57.3697 25.602V25.602ZM52.9297 13.5512V5.85938H61.8094V13.5512H52.9297ZM32.3312 5.85938V13.5512H23.4515V5.85938H32.3312ZM23.4515 19.4105H32.3312V21.1621C32.3312 23.6104 30.3394 25.602 27.8914 25.602C25.4431 25.602 23.4515 23.6104 23.4515 21.1621V19.4105ZM23.4515 94.1406V88.2719H76.5484V94.1406H23.4515ZM72.1088 25.602C69.6605 25.602 67.6689 23.6104 67.6689 21.1621V19.4105H76.5486V21.1621C76.5484 23.6104 74.5568 25.602 72.1088 25.602Z" fill="black"/>
<path d="M50 39.8404C44.9177 36.114 37.7189 36.5465 33.1277 41.1375C28.0593 46.2058 28.0593 54.4527 33.1277 59.5211L50 76.3933L66.8724 59.5209C71.9406 54.4525 71.9406 46.2056 66.8722 41.1373C62.2812 36.5465 55.0824 36.1139 50 39.8404Z" fill="#E83587"/>
</svg>
